#!OML:ASF F:\VICON\USERDATA\INSTALL\rory3\rory3.ASF
:FULLY-SPECIFIED
:DEGREES
365
root 0.637728 17.7229 -14.1791 7.20297 -3.91684 0.692629
lowerback 5.04678 -0.492979 -1.58574
upperback -1.84143 -0.63532 3.00204
thorax -4.69209 -0.220631 4.07046
lowerneck -18.1046 -3.2799 -10.272
upperneck 13.8315 -3.11449 7.43396
head 7.50509 -1.34004 3.77575
rclavicle 1.25234e-014 0
rhumerus -38.8772 -17.7839 -72.4503
rradius 31.6667
rwrist 4.48487
rhand -14.3034 12.2485
rfingers 7.12502
rthumb 11.8365 -17.397
lclavicle 1.25234e-014 0
lhumerus -42.4417 20.3814 77.5913
lradius 29.4105
lwrist -4.85873
lhand -21.8545 19.0108
lfingers 7.12502
lthumb 4.54922 48.9419
rfemur -7.47313 5.71548 19.7654
rtibia 20.6981
rfoot -13.1862 -13.703
rtoes 7.43586
lfemur -7.35121 -2.95286 -19.2364
ltibia 18.5213
lfoot -15.1937 6.84704
ltoes 2.81376
366
root 0.647258 17.7237 -14.1993 7.30765 -4.0361 0.814372
lowerback 4.9829 -0.454604 -1.73169
upperback -1.86556 -0.595116 2.96772
thorax -4.68343 -0.196639 4.11299
lowerneck -18.1612 -3.26339 -10.3086
upperneck 13.8584 -3.0896 7.50016
head 7.52288 -1.32311 3.8075
rclavicle -1.83876e-014 3.18055e-015
rhumerus -38.488 -17.7629 -72.5711
rradius 31.5974
rwrist 4.47801
rhand -14.2696 12.1285
rfingers 7.12502
rthumb 11.8691 -17.5151
lclavicle -1.83876e-014 3.18055e-015
lhumerus -42.2548 20.2941 77.7404
lradius 29.7712
lwrist -4.95629
lhand -21.8668 18.9705
lfingers 7.12502
lthumb 4.53739 48.9019
rfemur -7.72451 5.81774 19.5615
rtibia 20.8405
rfoot -13.265 -13.7678
rtoes 7.18777
lfemur -7.49491 -2.5641 -19.4056
ltibia 18.3475
lfoot -14.9815 6.63891
ltoes 1.77405
367
root 0.653215 17.7213 -14.2172 7.19514 -4.04483 1.05479
lowerback 5.10113 -0.460632 -1.99978
upperback -1.87285 -0.625814 2.88901
thorax -4.75413 -0.20359 4.18767
lowerneck -17.938 -3.25542 -10.3414
upperneck 13.6478 -3.09893 7.57924
head 7.41836 -1.32418 3.83604
rclavicle -4.47266e-015 7.95139e-016
rhumerus -38.3111 -17.4591 -72.8105
rradius 31.7255
rwrist 3.982
rhand -14.5129 11.9941
rfingers 7.12502
rthumb 11.6346 -17.6629
lclavicle -4.47266e-015 7.95139e-016
lhumerus -42.2372 20.0898 77.9073
lradius 30.3288
lwrist -4.68019
lhand -22.0162 19.1478
lfingers 7.12502
lthumb 4.39308 49.0823
rfemur -7.78615 5.9922 19.2858
rtibia 21.0395
rfoot -13.2942 -13.9423
rtoes 7.70211
lfemur -7.36541 -2.22926 -19.6572
ltibia 18.2026
lfoot -14.8902 6.22473
ltoes 1.43531
368
root 0.657134 17.7228 -14.2326 7.02329 -4.0084 1.23141
lowerback 5.33477 -0.418795 -2.14782
upperback -1.9079 -0.587576 2.76387
thorax -4.92681 -0.178178 4.14182
lowerneck -17.9829 -3.3483 -10.2519
upperneck 13.8207 -3.24581 7.5458
head 7.49481 -1.39329 3.79454
rclavicle 2.22639e-014 -2.22639e-014
rhumerus -38.2827 -17.3655 -73.0503
rradius 31.8278
rwrist 3.28259
rhand -14.9837 11.8708
rfingers 7.12502
rthumb 11.1805 -17.8113
lclavicle 2.22639e-014 -2.22639e-014
lhumerus -42.103 19.882 77.9491
lradius 30.5219
lwrist -4.52523
lhand -22.2152 18.8614
lfingers 7.12502
lthumb 4.20097 48.7997
rfemur -7.82229 6.07358 19.0917
rtibia 21.3095
rfoot -13.384 -14.0114
rtoes 7.97193
lfemur -7.10659 -1.94171 -19.839
ltibia 18.0413
lfoot -14.88 5.84527
ltoes 1.55034
369
root 0.664213 17.7296 -14.2441 6.91772 -3.9059 1.32537
lowerback 5.52442 -0.375439 -2.13499
upperback -2.01301 -0.535367 2.63583
thorax -5.15028 -0.149049 4.00026
lowerneck -17.8386 -3.46477 -10.207
upperneck 14.0127 -3.44149 7.55406
head 7.55134 -1.4878 3.76909
rclavicle -4.96962e-016 -4.77083e-015
rhumerus -38.3574 -17.6366 -73.0735
rradius 31.7867
rwrist 3.47791
rhand -15.2435 11.7329
rfingers 7.12502
rthumb 10.9299 -17.9627
lclavicle -4.96962e-016 -4.77083e-015
lhumerus -42.0525 19.7697 77.8427
lradius 30.6496
lwrist -4.68486
lhand -22.1167 18.0714
lfingers 7.12502
lthumb 4.29605 48.0079
rfemur -7.90768 5.93194 18.9859
rtibia 21.604
rfoot -13.4164 -14.0073
rtoes 7.41623
lfemur -6.94789 -1.74607 -19.9363
ltibia 17.8579
lfoot -14.7657 5.53747
ltoes 1.65397
370
root 0.677351 17.7335 -14.2572 6.90854 -3.80517 1.40189
lowerback 5.55839 -0.372393 -2.07625
upperback -2.09751 -0.531179 2.5363
thorax -5.2595 -0.147497 3.86399
lowerneck -17.4592 -3.51003 -10.2456
upperneck 13.8835 -3.54862 7.67366
head 7.45713 -1.53621 3.80251
rclavicle -1.43125e-014 -3.97569e-015
rhumerus -38.3198 -18.1465 -72.9581
rradius 31.6391
rwrist 4.54082
rhand -15.3713 11.414
rfingers 7.12502
rthumb 10.8067 -18.288
lclavicle -1.43125e-014 -3.97569e-015
lhumerus -41.9546 19.68 77.7858
lradius 30.8768
lwrist -4.52751
lhand -21.9895 17.7167
lfingers 7.12502
lthumb 4.41888 47.6506
rfemur -8.1156 5.66344 18.8543
rtibia 21.8488
rfoot -13.3653 -13.8363
rtoes 7.19008
lfemur -6.97942 -1.89163 -20.0088
ltibia 17.7171
lfoot -14.6673 5.38366
ltoes 2.41263
371
root 0.689577 17.7357 -14.2699 6.95882 -3.64259 1.43629
lowerback 5.41354 -0.417844 -2.01969
upperback -2.09305 -0.588445 2.49307
thorax -5.16818 -0.180329 3.7895
lowerneck -17.3904 -3.51005 -10.3163
upperneck 13.7485 -3.55268 7.79027
head 7.40505 -1.53152 3.85158
rclavicle 1.78906e-014 4.77083e-015
rhumerus -38.0244 -18.4404 -73.0449
rradius 31.483
rwrist 4.81647
rhand -15.5916 11.1031
rfingers 7.12502
rthumb 10.5941 -18.6099
lclavicle 1.78906e-014 4.77083e-015
lhumerus -41.6405 19.743 77.8443
lradius 31.0767
lwrist -4.27943
lhand -21.7261 18.5329
lfingers 7.12502
lthumb 4.67324 48.4614
rfemur -8.3169 5.35586 18.7707
rtibia 22.0098
rfoot -13.3209 -13.6459
rtoes 7.06304
lfemur -7.10994 -2.08462 -20.0175
ltibia 17.6409
lfoot -14.5097 5.18095
ltoes 3.3207
372
root 0.702153 17.7385 -14.2801 6.96379 -3.47111 1.4846
lowerback 5.2454 -0.47549 -1.92901
upperback -2.0065 -0.661725 2.41601
thorax -4.97722 -0.22553 3.65983
lowerneck -17.5715 -3.55105 -10.2984
upperneck 13.7042 -3.6035 7.85096
head 7.42728 -1.54526 3.8619
rclavicle 7.35503e-015 1.43125e-014
rhumerus -37.5672 -18.5166 -73.3904
rradius 31.3669
rwrist 4.6551
rhand -15.7234 11.1491
rfingers 7.12502
rthumb 10.467 -18.5703
lclavicle 7.35503e-015 1.43125e-014
lhumerus -41.266 19.7927 77.9289
lradius 31.3715
lwrist -4.35584
lhand -21.4268 19.9806
lfingers 7.12502
lthumb 4.96228 49.9025
rfemur -8.40127 5.15179 18.6898
rtibia 22.1211
rfoot -13.2659 -13.6078
rtoes 6.64704
lfemur -7.14158 -2.28469 -20.0821
ltibia 17.559
lfoot -14.3581 5.18203
ltoes 3.15368
